<mxfile host="Electron" modified="2024-09-10T11:47:39.953Z" agent="Mozilla/5.0 (Macintosh; Intel Mac OS X 10_15_7) AppleWebKit/537.36 (KHTML, like Gecko) draw.io/23.0.2 Chrome/120.0.6099.109 Electron/28.1.0 Safari/537.36" etag="Z1tKJNegfpQTe20kzy1q" version="23.0.2" type="device">
  <diagram name="Page-1" id="UfepDOO38ELXpNe_VjGn">
    <mxGraphModel dx="2302" dy="1267" grid="1" gridSize="10" guides="1" tooltips="1" connect="1" arrows="1" fold="1" page="1" pageScale="1" pageWidth="827" pageHeight="1169" math="0" shadow="0">
      <root>
        <mxCell id="0" />
        <mxCell id="1" parent="0" />
        <mxCell id="fcVAyz2zbUm_ImmnrmvF-6" style="edgeStyle=orthogonalEdgeStyle;rounded=0;orthogonalLoop=1;jettySize=auto;html=1;exitX=0.25;exitY=1;exitDx=0;exitDy=0;entryX=0.5;entryY=0;entryDx=0;entryDy=0;" parent="1" source="fcVAyz2zbUm_ImmnrmvF-1" target="fcVAyz2zbUm_ImmnrmvF-2" edge="1">
          <mxGeometry relative="1" as="geometry" />
        </mxCell>
        <mxCell id="fcVAyz2zbUm_ImmnrmvF-7" style="edgeStyle=orthogonalEdgeStyle;rounded=0;orthogonalLoop=1;jettySize=auto;html=1;exitX=0.75;exitY=1;exitDx=0;exitDy=0;entryX=0.5;entryY=0;entryDx=0;entryDy=0;" parent="1" source="fcVAyz2zbUm_ImmnrmvF-1" target="fcVAyz2zbUm_ImmnrmvF-3" edge="1">
          <mxGeometry relative="1" as="geometry" />
        </mxCell>
        <mxCell id="fcVAyz2zbUm_ImmnrmvF-1" value="/start&lt;br&gt;Привет! Я бот по обработке pdf документов/книг.&lt;br&gt;Для помощи вызови команду /help&lt;br&gt;Для начала обработки книги вызови команду /start_process_book&lt;br&gt;" style="rounded=0;whiteSpace=wrap;html=1;" parent="1" vertex="1">
          <mxGeometry x="200" y="40" width="360" height="80" as="geometry" />
        </mxCell>
        <mxCell id="fcVAyz2zbUm_ImmnrmvF-9" style="edgeStyle=orthogonalEdgeStyle;rounded=0;orthogonalLoop=1;jettySize=auto;html=1;exitX=0.5;exitY=1;exitDx=0;exitDy=0;entryX=0.5;entryY=0;entryDx=0;entryDy=0;" parent="1" source="fcVAyz2zbUm_ImmnrmvF-2" target="fcVAyz2zbUm_ImmnrmvF-8" edge="1">
          <mxGeometry relative="1" as="geometry" />
        </mxCell>
        <mxCell id="fcVAyz2zbUm_ImmnrmvF-2" value="/start_process_book" style="rounded=0;whiteSpace=wrap;html=1;" parent="1" vertex="1">
          <mxGeometry x="230" y="160" width="120" height="40" as="geometry" />
        </mxCell>
        <mxCell id="fcVAyz2zbUm_ImmnrmvF-3" value="/help" style="whiteSpace=wrap;html=1;" parent="1" vertex="1">
          <mxGeometry x="420" y="160" width="100" height="40" as="geometry" />
        </mxCell>
        <mxCell id="fcVAyz2zbUm_ImmnrmvF-13" style="edgeStyle=orthogonalEdgeStyle;rounded=0;orthogonalLoop=1;jettySize=auto;html=1;exitX=0.75;exitY=1;exitDx=0;exitDy=0;entryX=0.5;entryY=0;entryDx=0;entryDy=0;" parent="1" source="fcVAyz2zbUm_ImmnrmvF-8" target="fcVAyz2zbUm_ImmnrmvF-12" edge="1">
          <mxGeometry relative="1" as="geometry" />
        </mxCell>
        <mxCell id="fcVAyz2zbUm_ImmnrmvF-14" style="edgeStyle=orthogonalEdgeStyle;rounded=0;orthogonalLoop=1;jettySize=auto;html=1;exitX=0.25;exitY=1;exitDx=0;exitDy=0;entryX=0.5;entryY=0;entryDx=0;entryDy=0;" parent="1" source="fcVAyz2zbUm_ImmnrmvF-8" target="fcVAyz2zbUm_ImmnrmvF-10" edge="1">
          <mxGeometry relative="1" as="geometry" />
        </mxCell>
        <mxCell id="fcVAyz2zbUm_ImmnrmvF-8" value="Вы хотите обработать pdf книгу?" style="rounded=0;whiteSpace=wrap;html=1;" parent="1" vertex="1">
          <mxGeometry x="170" y="240" width="240" height="40" as="geometry" />
        </mxCell>
        <mxCell id="fcVAyz2zbUm_ImmnrmvF-16" style="edgeStyle=orthogonalEdgeStyle;rounded=0;orthogonalLoop=1;jettySize=auto;html=1;exitX=0.5;exitY=1;exitDx=0;exitDy=0;entryX=0.5;entryY=0;entryDx=0;entryDy=0;" parent="1" source="fcVAyz2zbUm_ImmnrmvF-10" target="fcVAyz2zbUm_ImmnrmvF-19" edge="1">
          <mxGeometry relative="1" as="geometry">
            <mxPoint x="380" y="440" as="targetPoint" />
          </mxGeometry>
        </mxCell>
        <mxCell id="fcVAyz2zbUm_ImmnrmvF-10" value="Да" style="rounded=0;whiteSpace=wrap;html=1;" parent="1" vertex="1">
          <mxGeometry x="210" y="320" width="40" height="40" as="geometry" />
        </mxCell>
        <mxCell id="fcVAyz2zbUm_ImmnrmvF-12" value="Нет" style="rounded=0;whiteSpace=wrap;html=1;" parent="1" vertex="1">
          <mxGeometry x="330" y="320" width="40" height="40" as="geometry" />
        </mxCell>
        <mxCell id="fcVAyz2zbUm_ImmnrmvF-19" value="Как хотите обработать файл?" style="rounded=0;whiteSpace=wrap;html=1;" parent="1" vertex="1">
          <mxGeometry x="315" y="440" width="170" height="40" as="geometry" />
        </mxCell>
        <mxCell id="fcVAyz2zbUm_ImmnrmvF-33" style="edgeStyle=orthogonalEdgeStyle;rounded=0;orthogonalLoop=1;jettySize=auto;html=1;exitX=0.5;exitY=1;exitDx=0;exitDy=0;entryX=0.5;entryY=0;entryDx=0;entryDy=0;" parent="1" source="fcVAyz2zbUm_ImmnrmvF-21" target="fcVAyz2zbUm_ImmnrmvF-30" edge="1">
          <mxGeometry relative="1" as="geometry" />
        </mxCell>
        <mxCell id="fcVAyz2zbUm_ImmnrmvF-21" value="Разделить страницы пополам" style="rounded=0;whiteSpace=wrap;html=1;" parent="1" vertex="1">
          <mxGeometry x="180" y="660" width="120" height="80" as="geometry" />
        </mxCell>
        <mxCell id="fcVAyz2zbUm_ImmnrmvF-72" style="edgeStyle=orthogonalEdgeStyle;rounded=0;orthogonalLoop=1;jettySize=auto;html=1;exitX=0.5;exitY=1;exitDx=0;exitDy=0;entryX=0.25;entryY=0;entryDx=0;entryDy=0;" parent="1" source="fcVAyz2zbUm_ImmnrmvF-22" target="fcVAyz2zbUm_ImmnrmvF-71" edge="1">
          <mxGeometry relative="1" as="geometry">
            <mxPoint x="560" y="1360" as="targetPoint" />
          </mxGeometry>
        </mxCell>
        <mxCell id="fcVAyz2zbUm_ImmnrmvF-22" value="Повернуть против часовой стрелки на 90 град." style="rounded=0;whiteSpace=wrap;html=1;" parent="1" vertex="1">
          <mxGeometry x="420" y="830" width="120" height="80" as="geometry" />
        </mxCell>
        <mxCell id="fcVAyz2zbUm_ImmnrmvF-73" style="edgeStyle=orthogonalEdgeStyle;rounded=0;orthogonalLoop=1;jettySize=auto;html=1;exitX=0.5;exitY=1;exitDx=0;exitDy=0;entryX=0.75;entryY=0;entryDx=0;entryDy=0;" parent="1" source="fcVAyz2zbUm_ImmnrmvF-23" target="fcVAyz2zbUm_ImmnrmvF-71" edge="1">
          <mxGeometry relative="1" as="geometry" />
        </mxCell>
        <mxCell id="fcVAyz2zbUm_ImmnrmvF-23" value="Повернуть по часовой стрелки на 90 град." style="rounded=0;whiteSpace=wrap;html=1;" parent="1" vertex="1">
          <mxGeometry x="580" y="830" width="120" height="80" as="geometry" />
        </mxCell>
        <mxCell id="fcVAyz2zbUm_ImmnrmvF-43" style="edgeStyle=orthogonalEdgeStyle;rounded=0;orthogonalLoop=1;jettySize=auto;html=1;exitX=0.75;exitY=1;exitDx=0;exitDy=0;entryX=0.5;entryY=0;entryDx=0;entryDy=0;" parent="1" source="fcVAyz2zbUm_ImmnrmvF-27" target="fcVAyz2zbUm_ImmnrmvF-39" edge="1">
          <mxGeometry relative="1" as="geometry" />
        </mxCell>
        <mxCell id="fcVAyz2zbUm_ImmnrmvF-46" style="edgeStyle=orthogonalEdgeStyle;rounded=0;orthogonalLoop=1;jettySize=auto;html=1;exitX=0.25;exitY=1;exitDx=0;exitDy=0;entryX=0.5;entryY=0;entryDx=0;entryDy=0;" parent="1" source="fcVAyz2zbUm_ImmnrmvF-27" target="fcVAyz2zbUm_ImmnrmvF-38" edge="1">
          <mxGeometry relative="1" as="geometry" />
        </mxCell>
        <mxCell id="fcVAyz2zbUm_ImmnrmvF-27" value="Хотите разделить страницы строго пополам или с запасом ?&amp;nbsp;" style="rounded=0;whiteSpace=wrap;html=1;" parent="1" vertex="1">
          <mxGeometry x="135" y="1060" width="210" height="80" as="geometry" />
        </mxCell>
        <mxCell id="fcVAyz2zbUm_ImmnrmvF-34" style="edgeStyle=orthogonalEdgeStyle;rounded=0;orthogonalLoop=1;jettySize=auto;html=1;exitX=0.25;exitY=1;exitDx=0;exitDy=0;entryX=0.5;entryY=0;entryDx=0;entryDy=0;" parent="1" source="fcVAyz2zbUm_ImmnrmvF-30" target="fcVAyz2zbUm_ImmnrmvF-31" edge="1">
          <mxGeometry relative="1" as="geometry" />
        </mxCell>
        <mxCell id="fcVAyz2zbUm_ImmnrmvF-35" style="edgeStyle=orthogonalEdgeStyle;rounded=0;orthogonalLoop=1;jettySize=auto;html=1;exitX=0.75;exitY=1;exitDx=0;exitDy=0;entryX=0.5;entryY=0;entryDx=0;entryDy=0;" parent="1" source="fcVAyz2zbUm_ImmnrmvF-30" target="fcVAyz2zbUm_ImmnrmvF-32" edge="1">
          <mxGeometry relative="1" as="geometry" />
        </mxCell>
        <mxCell id="fcVAyz2zbUm_ImmnrmvF-30" value="Хотите разделить страницы вертикально или горизонтально?" style="rounded=0;whiteSpace=wrap;html=1;" parent="1" vertex="1">
          <mxGeometry x="160" y="830" width="160" height="80" as="geometry" />
        </mxCell>
        <mxCell id="fcVAyz2zbUm_ImmnrmvF-36" style="edgeStyle=orthogonalEdgeStyle;rounded=0;orthogonalLoop=1;jettySize=auto;html=1;exitX=0.5;exitY=1;exitDx=0;exitDy=0;entryX=0.25;entryY=0;entryDx=0;entryDy=0;" parent="1" source="fcVAyz2zbUm_ImmnrmvF-31" target="fcVAyz2zbUm_ImmnrmvF-27" edge="1">
          <mxGeometry relative="1" as="geometry" />
        </mxCell>
        <mxCell id="fcVAyz2zbUm_ImmnrmvF-31" value="горизонтально" style="rounded=0;whiteSpace=wrap;html=1;" parent="1" vertex="1">
          <mxGeometry x="100" y="960" width="120" height="40" as="geometry" />
        </mxCell>
        <mxCell id="fcVAyz2zbUm_ImmnrmvF-37" style="edgeStyle=orthogonalEdgeStyle;rounded=0;orthogonalLoop=1;jettySize=auto;html=1;exitX=0.5;exitY=1;exitDx=0;exitDy=0;entryX=0.75;entryY=0;entryDx=0;entryDy=0;" parent="1" source="fcVAyz2zbUm_ImmnrmvF-32" target="fcVAyz2zbUm_ImmnrmvF-27" edge="1">
          <mxGeometry relative="1" as="geometry" />
        </mxCell>
        <mxCell id="fcVAyz2zbUm_ImmnrmvF-32" value="вертикально" style="rounded=0;whiteSpace=wrap;html=1;" parent="1" vertex="1">
          <mxGeometry x="260" y="960" width="120" height="40" as="geometry" />
        </mxCell>
        <mxCell id="fcVAyz2zbUm_ImmnrmvF-48" style="edgeStyle=orthogonalEdgeStyle;rounded=0;orthogonalLoop=1;jettySize=auto;html=1;exitX=0.5;exitY=1;exitDx=0;exitDy=0;entryX=0.25;entryY=0;entryDx=0;entryDy=0;" parent="1" source="fcVAyz2zbUm_ImmnrmvF-38" target="fcVAyz2zbUm_ImmnrmvF-47" edge="1">
          <mxGeometry relative="1" as="geometry" />
        </mxCell>
        <mxCell id="fcVAyz2zbUm_ImmnrmvF-38" value="строго" style="rounded=0;whiteSpace=wrap;html=1;" parent="1" vertex="1">
          <mxGeometry x="100" y="1220" width="120" height="40" as="geometry" />
        </mxCell>
        <mxCell id="fcVAyz2zbUm_ImmnrmvF-44" style="edgeStyle=orthogonalEdgeStyle;rounded=0;orthogonalLoop=1;jettySize=auto;html=1;exitX=0.5;exitY=1;exitDx=0;exitDy=0;entryX=0.5;entryY=0;entryDx=0;entryDy=0;" parent="1" source="fcVAyz2zbUm_ImmnrmvF-39" target="fcVAyz2zbUm_ImmnrmvF-41" edge="1">
          <mxGeometry relative="1" as="geometry" />
        </mxCell>
        <mxCell id="fcVAyz2zbUm_ImmnrmvF-39" value="с запасом" style="rounded=0;whiteSpace=wrap;html=1;" parent="1" vertex="1">
          <mxGeometry x="260" y="1220" width="120" height="40" as="geometry" />
        </mxCell>
        <mxCell id="fcVAyz2zbUm_ImmnrmvF-45" style="edgeStyle=orthogonalEdgeStyle;rounded=0;orthogonalLoop=1;jettySize=auto;html=1;exitX=0.5;exitY=1;exitDx=0;exitDy=0;entryX=0.5;entryY=0;entryDx=0;entryDy=0;" parent="1" source="fcVAyz2zbUm_ImmnrmvF-41" target="fcVAyz2zbUm_ImmnrmvF-42" edge="1">
          <mxGeometry relative="1" as="geometry" />
        </mxCell>
        <mxCell id="fcVAyz2zbUm_ImmnrmvF-41" value="Введите размер запаса в процентах 1-100%" style="rounded=0;whiteSpace=wrap;html=1;" parent="1" vertex="1">
          <mxGeometry x="230" y="1320" width="180" height="40" as="geometry" />
        </mxCell>
        <mxCell id="fcVAyz2zbUm_ImmnrmvF-49" style="edgeStyle=orthogonalEdgeStyle;rounded=0;orthogonalLoop=1;jettySize=auto;html=1;exitX=0.5;exitY=1;exitDx=0;exitDy=0;entryX=0.75;entryY=0;entryDx=0;entryDy=0;" parent="1" source="fcVAyz2zbUm_ImmnrmvF-42" target="fcVAyz2zbUm_ImmnrmvF-47" edge="1">
          <mxGeometry relative="1" as="geometry" />
        </mxCell>
        <mxCell id="fcVAyz2zbUm_ImmnrmvF-42" value="&amp;lt;Введено число&amp;gt;" style="rhombus;whiteSpace=wrap;html=1;" parent="1" vertex="1">
          <mxGeometry x="235" y="1420" width="170" height="50" as="geometry" />
        </mxCell>
        <mxCell id="fcVAyz2zbUm_ImmnrmvF-51" style="edgeStyle=orthogonalEdgeStyle;rounded=0;orthogonalLoop=1;jettySize=auto;html=1;exitX=0.5;exitY=1;exitDx=0;exitDy=0;" parent="1" source="fcVAyz2zbUm_ImmnrmvF-47" target="fcVAyz2zbUm_ImmnrmvF-50" edge="1">
          <mxGeometry relative="1" as="geometry" />
        </mxCell>
        <mxCell id="fcVAyz2zbUm_ImmnrmvF-47" value="Обработка" style="rounded=0;whiteSpace=wrap;html=1;" parent="1" vertex="1">
          <mxGeometry x="160" y="1540" width="160" height="40" as="geometry" />
        </mxCell>
        <mxCell id="fcVAyz2zbUm_ImmnrmvF-52" style="edgeStyle=orthogonalEdgeStyle;rounded=0;orthogonalLoop=1;jettySize=auto;html=1;exitX=0;exitY=0.5;exitDx=0;exitDy=0;entryX=0;entryY=0.5;entryDx=0;entryDy=0;" parent="1" source="fcVAyz2zbUm_ImmnrmvF-57" target="fcVAyz2zbUm_ImmnrmvF-53" edge="1">
          <mxGeometry relative="1" as="geometry">
            <mxPoint x="60" y="560" as="targetPoint" />
            <Array as="points">
              <mxPoint x="60" y="1750" />
              <mxPoint x="60" y="595" />
            </Array>
          </mxGeometry>
        </mxCell>
        <mxCell id="fcVAyz2zbUm_ImmnrmvF-60" style="edgeStyle=orthogonalEdgeStyle;rounded=0;orthogonalLoop=1;jettySize=auto;html=1;exitX=0.5;exitY=1;exitDx=0;exitDy=0;entryX=0.5;entryY=0;entryDx=0;entryDy=0;" parent="1" source="fcVAyz2zbUm_ImmnrmvF-50" target="fcVAyz2zbUm_ImmnrmvF-59" edge="1">
          <mxGeometry relative="1" as="geometry" />
        </mxCell>
        <mxCell id="fcVAyz2zbUm_ImmnrmvF-70" style="edgeStyle=orthogonalEdgeStyle;rounded=0;orthogonalLoop=1;jettySize=auto;html=1;exitX=0;exitY=0.5;exitDx=0;exitDy=0;entryX=1;entryY=0.5;entryDx=0;entryDy=0;" parent="1" source="fcVAyz2zbUm_ImmnrmvF-50" target="fcVAyz2zbUm_ImmnrmvF-57" edge="1">
          <mxGeometry relative="1" as="geometry" />
        </mxCell>
        <mxCell id="fcVAyz2zbUm_ImmnrmvF-50" value="Хотите обработать книгу как то еще?" style="rhombus;whiteSpace=wrap;html=1;" parent="1" vertex="1">
          <mxGeometry x="280" y="1710" width="240" height="80" as="geometry" />
        </mxCell>
        <mxCell id="fcVAyz2zbUm_ImmnrmvF-54" value="" style="edgeStyle=orthogonalEdgeStyle;rounded=0;orthogonalLoop=1;jettySize=auto;html=1;exitX=0.5;exitY=1;exitDx=0;exitDy=0;entryX=0.5;entryY=0;entryDx=0;entryDy=0;" parent="1" source="fcVAyz2zbUm_ImmnrmvF-19" target="fcVAyz2zbUm_ImmnrmvF-53" edge="1">
          <mxGeometry relative="1" as="geometry">
            <mxPoint x="400" y="480" as="sourcePoint" />
            <mxPoint x="400" y="700" as="targetPoint" />
          </mxGeometry>
        </mxCell>
        <mxCell id="fcVAyz2zbUm_ImmnrmvF-55" style="edgeStyle=orthogonalEdgeStyle;rounded=0;orthogonalLoop=1;jettySize=auto;html=1;exitX=0;exitY=1;exitDx=0;exitDy=0;entryX=0.5;entryY=0;entryDx=0;entryDy=0;" parent="1" source="fcVAyz2zbUm_ImmnrmvF-53" target="fcVAyz2zbUm_ImmnrmvF-21" edge="1">
          <mxGeometry relative="1" as="geometry" />
        </mxCell>
        <mxCell id="fcVAyz2zbUm_ImmnrmvF-66" style="edgeStyle=orthogonalEdgeStyle;rounded=0;orthogonalLoop=1;jettySize=auto;html=1;exitX=1;exitY=1;exitDx=0;exitDy=0;entryX=0.5;entryY=0;entryDx=0;entryDy=0;" parent="1" source="fcVAyz2zbUm_ImmnrmvF-53" target="fcVAyz2zbUm_ImmnrmvF-65" edge="1">
          <mxGeometry relative="1" as="geometry" />
        </mxCell>
        <mxCell id="fcVAyz2zbUm_ImmnrmvF-53" value="" style="ellipse;whiteSpace=wrap;html=1;" parent="1" vertex="1">
          <mxGeometry x="375" y="570" width="50" height="50" as="geometry" />
        </mxCell>
        <mxCell id="fcVAyz2zbUm_ImmnrmvF-57" value="Да" style="rounded=0;whiteSpace=wrap;html=1;" parent="1" vertex="1">
          <mxGeometry x="135" y="1720" width="70" height="60" as="geometry" />
        </mxCell>
        <mxCell id="j59bHjAevsswObuVLSly-6" style="edgeStyle=orthogonalEdgeStyle;rounded=0;orthogonalLoop=1;jettySize=auto;html=1;exitX=0.5;exitY=1;exitDx=0;exitDy=0;entryX=0.5;entryY=0;entryDx=0;entryDy=0;" edge="1" parent="1" source="fcVAyz2zbUm_ImmnrmvF-59" target="j59bHjAevsswObuVLSly-1">
          <mxGeometry relative="1" as="geometry" />
        </mxCell>
        <mxCell id="fcVAyz2zbUm_ImmnrmvF-59" value="Нет" style="rounded=0;whiteSpace=wrap;html=1;" parent="1" vertex="1">
          <mxGeometry x="370" y="1830" width="60" height="50" as="geometry" />
        </mxCell>
        <mxCell id="fcVAyz2zbUm_ImmnrmvF-69" style="edgeStyle=orthogonalEdgeStyle;rounded=0;orthogonalLoop=1;jettySize=auto;html=1;exitX=0;exitY=0.5;exitDx=0;exitDy=0;entryX=0;entryY=0.5;entryDx=0;entryDy=0;" parent="1" source="fcVAyz2zbUm_ImmnrmvF-63" target="fcVAyz2zbUm_ImmnrmvF-8" edge="1">
          <mxGeometry relative="1" as="geometry">
            <Array as="points">
              <mxPoint x="20" y="2300" />
              <mxPoint x="20" y="260" />
            </Array>
          </mxGeometry>
        </mxCell>
        <mxCell id="fcVAyz2zbUm_ImmnrmvF-63" value="В начало" style="rounded=0;whiteSpace=wrap;html=1;" parent="1" vertex="1">
          <mxGeometry x="340" y="2270" width="120" height="60" as="geometry" />
        </mxCell>
        <mxCell id="fcVAyz2zbUm_ImmnrmvF-67" style="edgeStyle=orthogonalEdgeStyle;rounded=0;orthogonalLoop=1;jettySize=auto;html=1;exitX=0.25;exitY=1;exitDx=0;exitDy=0;entryX=0.5;entryY=0;entryDx=0;entryDy=0;" parent="1" source="fcVAyz2zbUm_ImmnrmvF-65" target="fcVAyz2zbUm_ImmnrmvF-22" edge="1">
          <mxGeometry relative="1" as="geometry" />
        </mxCell>
        <mxCell id="fcVAyz2zbUm_ImmnrmvF-68" style="edgeStyle=orthogonalEdgeStyle;rounded=0;orthogonalLoop=1;jettySize=auto;html=1;exitX=0.75;exitY=1;exitDx=0;exitDy=0;entryX=0.5;entryY=0;entryDx=0;entryDy=0;" parent="1" source="fcVAyz2zbUm_ImmnrmvF-65" target="fcVAyz2zbUm_ImmnrmvF-23" edge="1">
          <mxGeometry relative="1" as="geometry" />
        </mxCell>
        <mxCell id="fcVAyz2zbUm_ImmnrmvF-65" value="Повернуть страницы" style="rounded=0;whiteSpace=wrap;html=1;" parent="1" vertex="1">
          <mxGeometry x="500" y="660" width="120" height="80" as="geometry" />
        </mxCell>
        <mxCell id="fcVAyz2zbUm_ImmnrmvF-74" style="edgeStyle=orthogonalEdgeStyle;rounded=0;orthogonalLoop=1;jettySize=auto;html=1;exitX=0.5;exitY=1;exitDx=0;exitDy=0;entryX=1;entryY=0;entryDx=0;entryDy=0;" parent="1" source="fcVAyz2zbUm_ImmnrmvF-71" target="fcVAyz2zbUm_ImmnrmvF-50" edge="1">
          <mxGeometry relative="1" as="geometry">
            <Array as="points">
              <mxPoint x="590" y="1645" />
              <mxPoint x="460" y="1645" />
            </Array>
          </mxGeometry>
        </mxCell>
        <mxCell id="fcVAyz2zbUm_ImmnrmvF-71" value="Обработка" style="rounded=0;whiteSpace=wrap;html=1;" parent="1" vertex="1">
          <mxGeometry x="520" y="1540" width="160" height="40" as="geometry" />
        </mxCell>
        <mxCell id="j59bHjAevsswObuVLSly-7" style="edgeStyle=orthogonalEdgeStyle;rounded=0;orthogonalLoop=1;jettySize=auto;html=1;exitX=0.5;exitY=1;exitDx=0;exitDy=0;entryX=0.5;entryY=0;entryDx=0;entryDy=0;" edge="1" parent="1" source="j59bHjAevsswObuVLSly-1" target="j59bHjAevsswObuVLSly-2">
          <mxGeometry relative="1" as="geometry" />
        </mxCell>
        <mxCell id="j59bHjAevsswObuVLSly-1" value="Загрузите книгу" style="rounded=0;whiteSpace=wrap;html=1;" vertex="1" parent="1">
          <mxGeometry x="340" y="1930" width="120" height="60" as="geometry" />
        </mxCell>
        <mxCell id="j59bHjAevsswObuVLSly-8" style="edgeStyle=orthogonalEdgeStyle;rounded=0;orthogonalLoop=1;jettySize=auto;html=1;exitX=0.5;exitY=1;exitDx=0;exitDy=0;entryX=0.5;entryY=0;entryDx=0;entryDy=0;" edge="1" parent="1" source="j59bHjAevsswObuVLSly-2" target="j59bHjAevsswObuVLSly-4">
          <mxGeometry relative="1" as="geometry" />
        </mxCell>
        <mxCell id="j59bHjAevsswObuVLSly-2" value="Обработка книги" style="rhombus;whiteSpace=wrap;html=1;" vertex="1" parent="1">
          <mxGeometry x="300" y="2030" width="200" height="80" as="geometry" />
        </mxCell>
        <mxCell id="j59bHjAevsswObuVLSly-9" style="edgeStyle=orthogonalEdgeStyle;rounded=0;orthogonalLoop=1;jettySize=auto;html=1;exitX=0.5;exitY=1;exitDx=0;exitDy=0;entryX=0.5;entryY=0;entryDx=0;entryDy=0;" edge="1" parent="1" source="j59bHjAevsswObuVLSly-4" target="fcVAyz2zbUm_ImmnrmvF-63">
          <mxGeometry relative="1" as="geometry" />
        </mxCell>
        <mxCell id="j59bHjAevsswObuVLSly-4" value="Выгрузить книгу" style="rounded=0;whiteSpace=wrap;html=1;" vertex="1" parent="1">
          <mxGeometry x="340" y="2160" width="120" height="60" as="geometry" />
        </mxCell>
      </root>
    </mxGraphModel>
  </diagram>
</mxfile>
